<svg width="50" height="50" viewBox="0 0 50 50" fill="none" xmlns="http://www.w3.org/2000/svg">
  <path
    d="M2 50V1.17188H17.3765L17.9625 7.22089C18.6246 6.23227 19.3486 5.34655 20.1344 4.56374C20.7845 3.91605 21.4771 3.33882 22.2119 2.83203C24.9198 0.944011 27.9822 0 31.3992 0C35.332 0 38.5878 0.813802 41.1667 2.44141C43.81 4.00391 45.7764 6.41276 47.0658 9.66797C47.1353 9.84321 47.2028 10.0211 47.2685 10.2016C47.636 11.2118 47.9451 12.3048 48.1956 13.4805C48.7319 15.9972 49 18.8931 49 22.168V25V39.0025V43.2714V50H32.7531V25C32.7531 22.7865 32.4952 20.9961 31.9794 19.6289C31.4636 18.2617 30.7222 17.2526 29.7551 16.6016C28.8525 15.8854 27.7243 15.4948 26.3704 15.4297C24.001 15.3158 22.15 15.8249 20.8173 16.9571L20.8083 16.9647C20.8052 16.9674 20.8021 16.97 20.7989 16.9727C20.7536 17.0116 20.7088 17.0512 20.6646 17.0915C20.53 17.2144 20.4011 17.3441 20.2778 17.4805C18.9239 18.9128 18.2469 21.1263 18.2469 24.1211V50H2Z"
    fill="white" />
</svg>