<svg width="50" height="50" viewBox="0 0 50 50" fill="none" xmlns="http://www.w3.org/2000/svg">
  <style>
    @media (prefers-color-scheme: light) {
    path {
    fill: #101111;
    }
    }
    @media (prefers-color-scheme: dark) {
    path {
    fill: #FAF9F9;
    }
    }
  </style>
  <path
    d="M24.9091 32.3832H17.9886V24.0385H24.9091C26.3409 24.0385 27.5 23.7179 28.3864 23.0769C29.2727 22.4359 29.9205 21.5545 30.3295 20.4327C30.7386 19.288 30.9432 18.006 30.9432 16.5865C30.9432 15.1442 30.7386 13.7935 30.3295 12.5343C29.9205 11.2752 29.2727 10.2679 28.3864 9.51236C27.5 8.73397 26.3409 8.34478 24.9091 8.34478H17.9886V50H8V0H24.9091C28.25 0 31.1136 0.709707 33.5 2.12912C35.9091 3.54853 37.7614 5.50595 39.0568 8.00137C40.3523 10.4739 41 13.3127 41 16.5179C41 19.7459 40.3523 22.5504 39.0568 24.9313C37.7614 27.2894 35.9091 29.1209 33.5 30.4258C31.1136 31.7308 28.25 32.3832 24.9091 32.3832Z"
  />
</svg>