<svg width="50" height="50" viewBox="0 0 50 50" fill="none" xmlns="http://www.w3.org/2000/svg">
  <g clip-path="url(#clip0_97_42)">
    <g opacity="0.2" filter="url(#filter0_f_97_42)">
      <path
        d="M17.1841 14.0096C17.1841 14.2323 17.005 14.4128 16.7841 14.4128H15.4529C15.2319 14.4128 15.0529 14.2323 15.0529 14.0096V6.47179C15.0529 6.24909 14.8738 6.06856 14.6529 6.06856H12.7235C12.5026 6.06856 12.3235 5.88804 12.3235 5.66534V4.68374C12.3235 4.46104 12.5026 4.28052 12.7235 4.28052H19.5135C19.7344 4.28052 19.9135 4.46104 19.9135 4.68372V5.66534C19.9135 5.88804 19.7344 6.06856 19.5135 6.06856H17.5841C17.3632 6.06856 17.1841 6.24909 17.1841 6.47179V14.0096Z"
        fill="white" />
      <path
        d="M22.9925 3.62903C23.2135 3.62903 23.3925 3.80955 23.3925 4.03225V5.82598C23.3925 6.20947 23.3787 6.57447 23.3513 6.92098C23.3319 7.21419 23.3157 7.43461 23.3029 7.58227C23.2995 7.62161 23.3301 7.65562 23.3693 7.65562C23.3923 7.65562 23.4135 7.64361 23.4259 7.62411C23.5867 7.37058 23.7749 7.16393 23.9907 7.00415C24.2197 6.83782 24.4719 6.71538 24.7469 6.63685C25.0219 6.5583 25.3175 6.51903 25.6337 6.51903C26.1883 6.51903 26.6719 6.61836 27.0843 6.81703C27.4969 7.01108 27.8177 7.31834 28.0469 7.73879C28.2761 8.15461 28.3907 8.69518 28.3907 9.3605V14.0096C28.3907 14.2323 28.2115 14.4128 27.9907 14.4128H26.6937C26.4729 14.4128 26.2937 14.2323 26.2937 14.0096V9.88721C26.2937 9.33278 26.1929 8.91465 25.9913 8.63282C25.7895 8.35096 25.4779 8.21006 25.0563 8.21006C24.6345 8.21006 24.3023 8.30939 24.0593 8.50806C23.8165 8.70211 23.6445 8.99088 23.5437 9.37437C23.4429 9.75322 23.3925 10.2176 23.3925 10.7674V14.0096C23.3925 14.2323 23.2135 14.4128 22.9925 14.4128H21.6957C21.4747 14.4128 21.2957 14.2323 21.2957 14.0096V4.03225C21.2957 3.80955 21.4747 3.62903 21.6957 3.62903H22.9925Z"
        fill="white" />
      <path
        d="M33.7186 6.51904C34.429 6.51904 35.041 6.65765 35.5542 6.93487C36.0676 7.20747 36.464 7.60481 36.7436 8.12691C37.0232 8.649 37.163 9.2866 37.163 10.0397V10.6622C37.163 10.8849 36.984 11.0654 36.763 11.0654H32.622C32.395 11.0654 32.2094 11.2568 32.2508 11.4818C32.325 11.8842 32.4866 12.2144 32.7356 12.4723C33.0702 12.8096 33.533 12.9782 34.1242 12.9782C34.6146 12.9782 35.0638 12.9274 35.4718 12.8257C35.6946 12.7702 35.9206 12.6996 36.1502 12.6138C36.4248 12.5111 36.7298 12.7071 36.7298 13.0023V13.7534C36.7298 13.9068 36.644 14.0482 36.5044 14.1093C36.1926 14.2457 35.869 14.3491 35.5336 14.4197C35.1212 14.5075 34.6192 14.5514 34.028 14.5514C33.258 14.5514 32.5752 14.4082 31.9792 14.1217C31.388 13.8353 30.9228 13.3987 30.5836 12.8119C30.249 12.2251 30.0818 11.4859 30.0818 10.5941C30.0818 9.68856 30.233 8.93545 30.5356 8.33481C30.8426 7.72955 31.2688 7.27676 31.8142 6.97644C32.3596 6.6715 32.9944 6.51904 33.7186 6.51904ZM33.7324 8.02295C33.3244 8.02295 32.9854 8.15463 32.7148 8.41797C32.522 8.60914 32.3882 8.87945 32.3136 9.22886C32.2646 9.45799 32.4524 9.65852 32.6848 9.65852H34.7908C35.014 9.65852 35.199 9.47287 35.1578 9.25168C35.1292 9.09747 35.085 8.95354 35.0248 8.81995C34.9194 8.57507 34.759 8.38102 34.5436 8.23779C34.3328 8.09457 34.0624 8.02295 33.7324 8.02295Z"
        fill="white" />
      <path
        d="M0.600102 28.6064C0.345902 28.6064 0.156182 28.3703 0.208746 28.1197L2.16403 18.7939C2.20313 18.6074 2.36635 18.474 2.55539 18.474H4.69923C5.70755 18.474 6.50277 18.6935 7.08485 19.1324C7.67151 19.5667 7.96485 20.2736 7.96485 21.2532C7.96485 21.7891 7.86859 22.258 7.67609 22.66C7.48359 23.0621 7.22005 23.3992 6.88547 23.6717C6.66151 23.8568 6.41539 24.0131 6.14711 24.1407C5.93783 24.2401 5.82709 24.4848 5.91675 24.6998L7.31221 28.0469C7.42301 28.3127 7.22943 28.6064 6.94347 28.6064H5.54173C5.37423 28.6064 5.22445 28.5012 5.16647 28.3427L3.93635 24.982C3.87835 24.8236 3.72859 24.7183 3.56107 24.7183H3.34577C3.15685 24.7183 2.99369 24.8516 2.95447 25.0379L2.27083 28.2869C2.23163 28.4732 2.06847 28.6064 1.87955 28.6064H0.600102ZM3.48885 22.4848C3.43593 22.7357 3.62571 22.9719 3.88011 22.9719H3.92235C4.22027 22.9719 4.48609 22.9395 4.71985 22.8748C4.95817 22.8056 5.15985 22.7062 5.32485 22.5768C5.48985 22.4429 5.61359 22.2766 5.69609 22.0778C5.78317 21.8746 5.82673 21.6389 5.82673 21.3709C5.82673 20.9921 5.71673 20.7078 5.49673 20.5185C5.27673 20.329 4.93527 20.2344 4.47235 20.2344H4.28747C4.09863 20.2344 3.93551 20.3675 3.89623 20.5536L3.48885 22.4848Z"
        fill="white" />
      <path
        d="M11.9799 28.745C11.3795 28.745 10.8501 28.6363 10.3918 28.4192C9.93804 28.1974 9.58284 27.8647 9.32616 27.4212C9.0695 26.9776 8.94116 26.421 8.94116 25.751C8.94116 25.1043 9.03284 24.4805 9.21616 23.8799C9.3995 23.2746 9.6722 22.7339 10.0343 22.2581C10.401 21.7823 10.8501 21.4057 11.3818 21.1285C11.918 20.8512 12.5368 20.7125 13.238 20.7125C14.0997 20.7125 14.7437 20.9113 15.1699 21.3087C15.6007 21.7014 15.8162 22.2073 15.8162 22.8264C15.8162 23.2329 15.7245 23.6026 15.5412 23.9353C15.3624 24.268 15.0897 24.5545 14.723 24.7946C14.3564 25.0303 13.8958 25.2127 13.3412 25.3422C12.7866 25.467 12.1357 25.5293 11.3887 25.5293H11.1831C11.1011 25.5293 11.0333 25.5926 11.0243 25.6748C11.0243 25.7164 11.0243 25.7625 11.0243 25.8133C11.0243 26.2293 11.1435 26.5595 11.3818 26.8045C11.6201 27.0494 11.957 27.1718 12.3924 27.1718C12.7957 27.1718 13.1624 27.1256 13.4924 27.0331C13.6719 26.9829 13.8691 26.9149 14.0839 26.8291C14.3563 26.7202 14.6612 26.9151 14.6612 27.2105V27.8972C14.6612 28.0512 14.5745 28.193 14.4347 28.2551C14.1045 28.402 13.7698 28.5168 13.4305 28.5994C13.0135 28.6964 12.5299 28.745 11.9799 28.745ZM11.3461 23.8216C11.297 23.9738 11.4155 24.1224 11.5743 24.1224C12.106 24.1224 12.5368 24.0645 12.8668 23.949C13.2014 23.8337 13.4443 23.6811 13.5955 23.4918C13.7514 23.3022 13.8293 23.0966 13.8293 22.8748C13.8293 22.653 13.7651 22.4891 13.6368 22.3829C13.513 22.272 13.3366 22.2166 13.1074 22.2166C12.8507 22.2166 12.5964 22.2974 12.3443 22.4591C12.0922 22.6208 11.8699 22.8448 11.6774 23.1313C11.5382 23.3385 11.4278 23.5686 11.3461 23.8216Z"
        fill="white" />
      <path
        d="M19.6522 28.745C19.1206 28.745 18.637 28.6502 18.2016 28.4609C17.7708 28.2668 17.427 27.9619 17.1704 27.546C16.9183 27.1256 16.7922 26.5758 16.7922 25.8966C16.7922 25.3375 16.8495 24.8016 16.9641 24.2887C17.0787 23.7758 17.2483 23.3022 17.4729 22.868C17.6974 22.4337 17.9747 22.0571 18.3047 21.7383C18.6347 21.4149 19.0129 21.1631 19.4391 20.9829C19.8654 20.8026 20.3396 20.7125 20.8622 20.7125C21.3206 20.7125 21.7308 20.7565 22.0928 20.8444C22.332 20.9016 22.5606 20.9736 22.7782 21.0603C22.9728 21.1379 23.057 21.3627 22.979 21.5585L22.637 22.4168C22.5534 22.6264 22.3156 22.7248 22.1058 22.6454C21.988 22.6008 21.8714 22.5595 21.756 22.5214C21.5176 22.443 21.2472 22.4037 20.9446 22.4037C20.6192 22.4037 20.3282 22.4984 20.0716 22.6877C19.8195 22.8772 19.6041 23.1313 19.4254 23.45C19.2512 23.769 19.1183 24.127 19.0266 24.5244C18.9349 24.9172 18.8891 25.3168 18.8891 25.7234C18.8891 26.0143 18.9349 26.2593 19.0266 26.4579C19.1229 26.6567 19.2581 26.8067 19.4322 26.9085C19.611 27.0101 19.8241 27.0609 20.0716 27.0609C20.42 27.0609 20.743 27.0077 21.041 26.9014C21.15 26.8609 21.2602 26.817 21.3716 26.7696C21.6466 26.6526 21.9622 26.8484 21.9622 27.1492V27.9545C21.9622 28.1041 21.8808 28.2426 21.7462 28.3053C21.4874 28.4258 21.2134 28.5238 20.924 28.5994C20.5528 28.6964 20.1288 28.745 19.6522 28.745Z"
        fill="white" />
      <path
        d="M23.7278 28.6064C23.4734 28.6064 23.2838 28.3704 23.3364 28.1195L24.7962 21.1776C24.8354 20.9913 24.9986 20.8581 25.1876 20.8581H26.4392C26.6934 20.8581 26.8832 21.0941 26.8304 21.3449L25.3706 28.2867C25.3314 28.473 25.1682 28.6064 24.9794 28.6064H23.7278ZM26.2316 19.8948C25.9382 19.8948 25.6908 19.8301 25.489 19.7007C25.292 19.5714 25.1934 19.3519 25.1934 19.0423C25.1934 18.7743 25.2416 18.5503 25.3378 18.3701C25.4386 18.1899 25.583 18.0536 25.771 17.9612C25.9588 17.8688 26.1834 17.8226 26.4446 17.8226C26.7196 17.8226 26.958 17.8826 27.1596 18.0028C27.366 18.1229 27.469 18.3401 27.469 18.6542C27.469 19.0238 27.3682 19.3242 27.1666 19.5552C26.965 19.7816 26.6532 19.8948 26.2316 19.8948Z"
        fill="white" />
      <path
        d="M27.1862 32.0162C26.932 32.0162 26.7422 31.7801 26.795 31.5291L28.9764 21.1776C29.0156 20.9914 29.1788 20.8581 29.3676 20.8581H30.183C30.4196 20.8581 30.6044 21.0641 30.581 21.3014L30.5122 21.9938C30.51 22.0166 30.5278 22.0363 30.5504 22.0363C30.5626 22.0363 30.5742 22.0305 30.5814 22.0204C30.7392 21.8045 30.921 21.5972 31.1268 21.3988C31.3376 21.1954 31.5782 21.0315 31.8486 20.9067C32.119 20.7772 32.4192 20.7125 32.7492 20.7125C33.1206 20.7125 33.4712 20.8051 33.8012 20.9897C34.1312 21.1746 34.3992 21.475 34.6056 21.8908C34.8118 22.302 34.9148 22.8518 34.9148 23.5401C34.9148 24.0438 34.8598 24.5452 34.7498 25.0442C34.6444 25.5385 34.4886 26.0097 34.2824 26.4579C34.0808 26.9014 33.8332 27.2966 33.5398 27.643C33.2512 27.9849 32.9234 28.2553 32.5568 28.4539C32.1902 28.648 31.789 28.745 31.3536 28.745C31.042 28.745 30.7784 28.6964 30.563 28.5994C30.3476 28.4978 30.1642 28.3615 30.013 28.1905C29.8706 28.0244 29.739 27.8387 29.618 27.6335C29.6114 27.6222 29.5994 27.6153 29.5864 27.6153C29.5672 27.6153 29.5514 27.6303 29.5498 27.6496C29.5226 28.0105 29.4868 28.3434 29.4424 28.648C29.3966 28.9668 29.3346 29.3041 29.2568 29.6599L28.829 31.6964C28.7898 31.8829 28.6266 32.0162 28.4376 32.0162H27.1862ZM31.003 27.0609C31.2046 27.0609 31.3972 26.9962 31.5806 26.8668C31.7638 26.7329 31.9312 26.5526 32.0824 26.3262C32.2336 26.0952 32.3642 25.8343 32.4742 25.5432C32.5842 25.2474 32.669 24.9355 32.7286 24.6075C32.7882 24.2795 32.818 23.9514 32.818 23.6234C32.818 23.2168 32.7424 22.9119 32.5912 22.7085C32.4444 22.5053 32.2198 22.4037 31.9174 22.4037C31.6974 22.4037 31.4958 22.4613 31.3124 22.5768C31.1336 22.6924 30.9756 22.8472 30.838 23.0412C30.7006 23.2353 30.5814 23.4547 30.4806 23.6996C30.3796 23.9399 30.2972 24.1893 30.233 24.4482C30.1688 24.7069 30.1208 24.9563 30.0886 25.1966C30.0612 25.4369 30.0474 25.6516 30.0474 25.8412C30.0474 26.2061 30.1322 26.5018 30.3018 26.7282C30.476 26.95 30.7096 27.0609 31.003 27.0609Z"
        fill="white" />
      <path
        d="M39.2049 28.745C38.6045 28.745 38.0753 28.6363 37.6169 28.4192C37.1631 28.1974 36.8079 27.8647 36.5513 27.4212C36.2945 26.9776 36.1663 26.421 36.1663 25.751C36.1663 25.1043 36.2579 24.4805 36.4413 23.8799C36.6245 23.2746 36.8973 22.7339 37.2593 22.2581C37.6261 21.7823 38.0753 21.4057 38.6069 21.1285C39.1431 20.8512 39.7619 20.7125 40.4631 20.7125C41.3247 20.7125 41.9687 20.9113 42.3949 21.3087C42.8259 21.7014 43.0413 22.2073 43.0413 22.8264C43.0413 23.2329 42.9495 23.6026 42.7663 23.9353C42.5875 24.268 42.3147 24.5545 41.9481 24.7946C41.5815 25.0303 41.1209 25.2127 40.5663 25.3422C40.0117 25.467 39.3609 25.5293 38.6137 25.5293H38.4081C38.3261 25.5293 38.2585 25.5926 38.2493 25.6748C38.2493 25.7164 38.2493 25.7625 38.2493 25.8133C38.2493 26.2293 38.3685 26.5595 38.6069 26.8045C38.8453 27.0494 39.1821 27.1718 39.6175 27.1718C40.0209 27.1718 40.3875 27.1256 40.7175 27.0331C40.8971 26.9829 41.0941 26.9149 41.3089 26.8291C41.5813 26.7202 41.8863 26.9151 41.8863 27.2105V27.8972C41.8863 28.0512 41.7997 28.193 41.6597 28.2551C41.3297 28.402 40.9949 28.5168 40.6557 28.5994C40.2385 28.6964 39.7549 28.745 39.2049 28.745ZM38.5711 23.8216C38.5221 23.9738 38.6407 24.1224 38.7993 24.1224C39.3311 24.1224 39.7619 24.0645 40.0919 23.949C40.4265 23.8337 40.6693 23.6811 40.8207 23.4918C40.9765 23.3022 41.0543 23.0966 41.0543 22.8748C41.0543 22.653 40.9903 22.4891 40.8619 22.3829C40.7381 22.272 40.5617 22.2166 40.3325 22.2166C40.0759 22.2166 39.8215 22.2974 39.5693 22.4591C39.3173 22.6208 39.0949 22.8448 38.9025 23.1313C38.7633 23.3385 38.6529 23.5686 38.5711 23.8216Z"
        fill="white" />
      <path
        d="M45.8596 28.745C45.3692 28.745 44.9408 28.7103 44.574 28.641C44.2956 28.5877 44.0306 28.5071 43.7792 28.399C43.6406 28.3395 43.5566 28.1988 43.5566 28.047V27.2718C43.5566 26.9619 43.8916 26.7643 44.176 26.8821C44.3208 26.9422 44.4674 26.9948 44.6154 27.0401C44.982 27.1464 45.3602 27.1994 45.7496 27.1994C45.9652 27.1994 46.1668 27.1694 46.3546 27.1095C46.5472 27.0494 46.703 26.9569 46.8222 26.8323C46.9414 26.7075 47.001 26.5504 47.001 26.3609C47.001 26.2315 46.9712 26.116 46.9116 26.0143C46.852 25.9127 46.7374 25.8018 46.5678 25.6817C46.4028 25.5571 46.1622 25.4069 45.846 25.2313C45.5296 25.051 45.2592 24.8662 45.0346 24.6768C44.8146 24.4873 44.6452 24.2726 44.526 24.0323C44.4114 23.792 44.354 23.5101 44.354 23.1867C44.354 22.6508 44.471 22.2004 44.7046 21.8353C44.9384 21.4658 45.273 21.1861 45.7084 20.9968C46.1484 20.8073 46.6732 20.7125 47.2828 20.7125C47.7274 20.7125 48.156 20.7633 48.5684 20.8651C48.8712 20.9397 49.169 21.0504 49.462 21.1972C49.6454 21.2891 49.7134 21.5135 49.6276 21.701L49.2858 22.4494C49.1858 22.6686 48.9188 22.7494 48.7032 22.6444C48.5512 22.5702 48.394 22.5039 48.2316 22.4452C47.929 22.3343 47.6266 22.2789 47.324 22.2789C47.0994 22.2789 46.8978 22.3321 46.719 22.4383C46.5404 22.5446 46.451 22.7085 46.451 22.9303C46.451 23.0504 46.483 23.1613 46.5472 23.2629C46.6114 23.3601 46.719 23.4593 46.8704 23.5611C47.0262 23.6627 47.2346 23.7829 47.496 23.9214C47.8076 24.0831 48.0826 24.2633 48.321 24.4619C48.5638 24.6561 48.754 24.8825 48.8916 25.1412C49.029 25.3952 49.0978 25.6978 49.0978 26.049C49.0978 26.6403 48.965 27.1371 48.699 27.5391C48.4332 27.9365 48.0574 28.2367 47.5716 28.4399C47.0904 28.6434 46.5196 28.745 45.8596 28.745Z"
        fill="white" />
      <path
        d="M18.8488 42.8C18.6727 42.8 18.5174 42.6838 18.4661 42.5141L17.91 40.6738C17.8588 40.504 17.7034 40.3881 17.5274 40.3881H14.4556C14.2796 40.3881 14.1243 40.504 14.073 40.6738L13.5169 42.5141C13.4656 42.6838 13.3103 42.8 13.1343 42.8H11.6989C11.4232 42.8 11.2301 42.5252 11.3216 42.2629L14.5879 32.8955C14.6442 32.734 14.7954 32.626 14.9652 32.626H17.0044C17.174 32.626 17.3252 32.7338 17.3816 32.8951L20.6607 42.2625C20.7525 42.5248 20.5593 42.8 20.2835 42.8H18.8488ZM16.7713 38.5861C17.041 38.5861 17.2334 38.3226 17.1531 38.0629L16.5862 36.2298C16.5404 36.0728 16.4785 35.8717 16.4006 35.6268C16.3272 35.3774 16.2516 35.1256 16.1737 34.8715C16.1253 34.7006 15.8625 34.7 15.8129 34.8705C15.8094 34.8822 15.806 34.8941 15.8025 34.906C15.7245 35.1832 15.6489 35.4467 15.5756 35.6961C15.5022 35.9457 15.4495 36.1236 15.4175 36.2298L14.8556 38.0639C14.7761 38.3234 14.9685 38.5861 15.2378 38.5861H16.7713Z"
        fill="white" />
      <path
        d="M26.2318 34.906C27.098 34.906 27.797 35.2457 28.3286 35.925C28.8648 36.604 29.133 37.5998 29.133 38.9119C29.133 39.7897 29.007 40.529 28.7548 41.1296C28.5028 41.7256 28.1544 42.1762 27.7098 42.481C27.2654 42.786 26.7542 42.9385 26.1768 42.9385C25.8056 42.9385 25.487 42.8923 25.2212 42.8C24.9554 42.7028 24.7284 42.5804 24.5406 42.4326C24.3614 42.2873 24.2052 42.1336 24.072 41.9715C24.0596 41.9564 24.041 41.9473 24.0214 41.9473C23.9806 41.9473 23.95 41.9852 23.9574 42.0258C23.9866 42.1856 24.0092 42.349 24.0248 42.5157C24.0432 42.7098 24.0524 42.8992 24.0524 43.084V45.8064C24.0524 46.0292 23.8734 46.2096 23.6524 46.2096H22.3556C22.1346 46.2096 21.9556 46.0292 21.9556 45.8064V35.4548C21.9556 35.2322 22.1346 35.0516 22.3556 35.0516H23.362C23.539 35.0516 23.695 35.1691 23.7454 35.3403L23.9402 36.0024C23.9496 36.0344 23.979 36.0566 24.0122 36.0566C24.0374 36.0566 24.0608 36.0439 24.075 36.0229C24.208 35.828 24.3678 35.6473 24.5542 35.4814C24.7514 35.3058 24.9874 35.1671 25.2624 35.0655C25.542 34.9592 25.8652 34.906 26.2318 34.906ZM25.558 36.5971C25.1914 36.5971 24.9004 36.6733 24.6848 36.8258C24.4694 36.9784 24.3114 37.207 24.2106 37.5119C24.1142 37.8169 24.0616 38.2026 24.0524 38.6693V38.8979C24.0524 39.3969 24.0982 39.8197 24.1898 40.1663C24.2862 40.5129 24.4442 40.7762 24.6642 40.9564C24.8888 41.1367 25.196 41.2266 25.5856 41.2266C25.9064 41.2266 26.1698 41.1367 26.3762 40.9564C26.5824 40.7762 26.736 40.5129 26.8368 40.1663C26.9422 39.8151 26.9948 39.3879 26.9948 38.8842C26.9948 38.1264 26.878 37.5558 26.6442 37.1723C26.4106 36.7889 26.0484 36.5971 25.558 36.5971Z"
        fill="white" />
      <path
        d="M35.1417 34.906C36.0079 34.906 36.7069 35.2457 37.2385 35.925C37.7747 36.604 38.0429 37.5998 38.0429 38.9119C38.0429 39.7897 37.9169 40.529 37.6647 41.1296C37.4127 41.7256 37.0643 42.1762 36.6197 42.481C36.1753 42.786 35.6641 42.9385 35.0867 42.9385C34.7155 42.9385 34.3969 42.8923 34.1311 42.8C33.8653 42.7028 33.6383 42.5804 33.4505 42.4326C33.2713 42.2873 33.1151 42.1336 32.9819 41.9715C32.9695 41.9564 32.9509 41.9473 32.9313 41.9473C32.8905 41.9473 32.8599 41.9852 32.8673 42.0258C32.8965 42.1856 32.9191 42.349 32.9347 42.5157C32.9531 42.7098 32.9623 42.8992 32.9623 43.084V45.8064C32.9623 46.0292 32.7833 46.2096 32.5623 46.2096H31.2655C31.0445 46.2096 30.8655 46.0292 30.8655 45.8064V35.4548C30.8655 35.2322 31.0445 35.0516 31.2655 35.0516H32.2719C32.4489 35.0516 32.6049 35.1691 32.6553 35.3403L32.8501 36.0024C32.8595 36.0344 32.8889 36.0566 32.9221 36.0566C32.9473 36.0566 32.9707 36.0439 32.9849 36.0229C33.1179 35.828 33.2777 35.6473 33.4641 35.4814C33.6613 35.3058 33.8973 35.1671 34.1723 35.0655C34.4519 34.9592 34.7751 34.906 35.1417 34.906ZM34.4679 36.5971C34.1013 36.5971 33.8103 36.6733 33.5947 36.8258C33.3793 36.9784 33.2213 37.207 33.1205 37.5119C33.0241 37.8169 32.9715 38.2026 32.9623 38.6693V38.8979C32.9623 39.3969 33.0081 39.8197 33.0997 40.1663C33.1961 40.5129 33.3541 40.7762 33.5741 40.9564C33.7987 41.1367 34.1059 41.2266 34.4955 41.2266C34.8163 41.2266 35.0797 41.1367 35.2861 40.9564C35.4923 40.7762 35.6459 40.5129 35.7467 40.1663C35.8521 39.8151 35.9047 39.3879 35.9047 38.8842C35.9047 38.1264 35.7879 37.5558 35.5541 37.1723C35.3205 36.7889 34.9583 36.5971 34.4679 36.5971Z"
        fill="white" />
      <path
        d="M18.2791 16.0811C18.2791 16.3038 18.1 16.4844 17.8791 16.4844H16.9354C16.7144 16.4844 16.5354 16.3038 16.5354 16.0811V10.0605C16.5354 9.83776 16.3563 9.65724 16.1354 9.65724H14.7022C14.4813 9.65724 14.3022 9.47671 14.3022 9.25401V8.5975C14.3022 8.37482 14.4813 8.19427 14.7022 8.19427H20.1122C20.3332 8.19427 20.5122 8.37482 20.5122 8.59752V9.25401C20.5122 9.47671 20.3332 9.65724 20.1122 9.65724H18.6791C18.4582 9.65724 18.2791 9.83776 18.2791 10.0605V16.0811Z"
        fill="white" />
      <path
        d="M22.9587 7.66132C23.1797 7.66132 23.3587 7.84184 23.3587 8.06454V9.45882C23.3587 9.77259 23.3475 10.0712 23.3249 10.3547C23.3091 10.5946 23.2959 10.775 23.2855 10.8958C23.2827 10.928 23.3077 10.9558 23.3397 10.9558C23.3585 10.9558 23.3759 10.946 23.3861 10.93C23.5177 10.7226 23.6717 10.5535 23.8481 10.4228C24.0357 10.2867 24.2419 10.1865 24.4669 10.1222C24.6919 10.058 24.9337 10.0259 25.1925 10.0259C25.6463 10.0259 26.0419 10.1071 26.3793 10.2697C26.7169 10.4285 26.9793 10.6798 27.1669 11.0238C27.3543 11.3641 27.4481 11.8064 27.4481 12.3507V16.0812C27.4481 16.3039 27.2691 16.4844 27.0481 16.4844H26.1325C25.9115 16.4844 25.7325 16.3039 25.7325 16.0812V12.7817C25.7325 12.328 25.6499 11.9859 25.4849 11.7553C25.3199 11.5247 25.0649 11.4094 24.7199 11.4094C24.3749 11.4094 24.1031 11.4907 23.9043 11.6533C23.7057 11.812 23.5649 12.0483 23.4825 12.362C23.3999 12.672 23.3587 13.0519 23.3587 13.5018V16.0812C23.3587 16.3039 23.1797 16.4844 22.9587 16.4844H22.0431C21.8223 16.4844 21.6431 16.3039 21.6431 16.0812V8.06454C21.6431 7.84184 21.8223 7.66132 22.0431 7.66132H22.9587Z"
        fill="white" />
      <path
        d="M31.8074 10.0258C32.3886 10.0258 32.8892 10.1392 33.3092 10.366C33.7292 10.5891 34.0536 10.9142 34.2824 11.3413C34.5112 11.7685 34.6256 12.2902 34.6256 12.9064V13.3424C34.6256 13.5651 34.4464 13.7456 34.2256 13.7456H30.9856C30.7588 13.7456 30.5718 13.9377 30.6216 14.1609C30.6878 14.4566 30.815 14.7018 31.003 14.8967C31.2768 15.1726 31.6556 15.3106 32.1392 15.3106C32.5406 15.3106 32.908 15.269 33.2418 15.1859C33.3892 15.1491 33.5382 15.1043 33.6892 15.0514C33.9658 14.9544 34.2712 15.1504 34.2712 15.4456V15.8993C34.2712 16.0527 34.1854 16.1944 34.0452 16.2539C33.8028 16.3567 33.552 16.4354 33.2924 16.49C32.9548 16.5619 32.5442 16.5978 32.0606 16.5978C31.4306 16.5978 30.8718 16.4806 30.3842 16.2462C29.9006 16.0118 29.5198 15.6546 29.2424 15.1745C28.9686 14.6944 28.8318 14.0896 28.8318 13.36C28.8318 12.6191 28.9556 12.0029 29.203 11.5115C29.4542 11.0162 29.803 10.6458 30.2492 10.4001C30.6956 10.1506 31.2148 10.0258 31.8074 10.0258ZM31.8186 11.2563C31.4848 11.2563 31.2074 11.364 30.9862 11.5795C30.8426 11.7216 30.7392 11.9172 30.6756 12.1662C30.6178 12.3932 30.8074 12.5945 31.0398 12.5945H32.6108C32.834 12.5945 33.0204 12.408 32.9698 12.1888C32.9468 12.0899 32.9156 11.9964 32.8762 11.9084C32.7898 11.708 32.6586 11.5493 32.4824 11.4321C32.3098 11.3149 32.0886 11.2563 31.8186 11.2563Z"
        fill="white" />
      <path
        d="M4.80004 28.0974C4.54586 28.0974 4.35614 27.8613 4.4087 27.6107L5.97774 20.127C6.01682 19.9406 6.18006 19.8072 6.3691 19.8072H8.06418C8.88918 19.8072 9.5398 19.9867 10.016 20.3459C10.496 20.7012 10.736 21.2796 10.736 22.081C10.736 22.5195 10.6573 22.9032 10.4998 23.232C10.3423 23.5611 10.1267 23.8369 9.85292 24.0601C9.6893 24.1951 9.51122 24.3115 9.31868 24.4092C9.112 24.5141 9.0008 24.7582 9.09044 24.9732L10.1597 27.5379C10.2705 27.8036 10.0769 28.0974 9.79092 28.0974H8.80418C8.63668 28.0974 8.4869 27.9921 8.42892 27.8336L7.45754 25.1798C7.39956 25.0213 7.2498 24.9161 7.08228 24.9161H7.01572C6.8268 24.9161 6.66364 25.0494 6.62442 25.2357L6.08954 27.7778C6.05034 27.9641 5.88718 28.0974 5.69824 28.0974H4.80004ZM7.08106 23.0546C7.03406 23.2774 7.2026 23.4873 7.42854 23.4873C7.6723 23.4873 7.8898 23.4609 8.08104 23.4078C8.27604 23.3512 8.44104 23.2699 8.57604 23.1641C8.71104 23.0544 8.8123 22.9183 8.8798 22.7558C8.95104 22.5895 8.98668 22.3967 8.98668 22.1774C8.98668 21.8673 8.89668 21.6349 8.71668 21.48C8.53668 21.325 8.2573 21.2476 7.87854 21.2476H7.78618C7.59732 21.2476 7.4342 21.3806 7.39492 21.5667L7.08106 23.0546Z"
        fill="white" />
      <path
        d="M14.0212 28.2107C13.5299 28.2107 13.0968 28.1218 12.7218 27.9442C12.3505 27.7627 12.0599 27.4905 11.8499 27.1276C11.6399 26.7647 11.5349 26.3093 11.5349 25.7611C11.5349 25.2319 11.6099 24.7216 11.7599 24.2301C11.9099 23.7349 12.133 23.2926 12.4293 22.9032C12.7293 22.5139 13.0968 22.2059 13.5318 21.9791C13.9705 21.7522 14.4768 21.6387 15.0505 21.6387C15.7555 21.6387 16.2824 21.8012 16.6312 22.1264C16.9837 22.4478 17.1599 22.8617 17.1599 23.3682C17.1599 23.7008 17.0849 24.0032 16.9349 24.2754C16.7887 24.5476 16.5655 24.7821 16.2655 24.9787C15.9655 25.1714 15.5887 25.3208 15.1349 25.4266C14.6812 25.5287 14.1487 25.5797 13.5374 25.5797H13.3692C13.3021 25.5797 13.2467 25.6315 13.2393 25.6988C13.2393 25.7327 13.2393 25.7706 13.2393 25.8121C13.2393 26.1524 13.3368 26.4226 13.5318 26.623C13.7268 26.8234 14.0024 26.9236 14.3587 26.9236C14.6887 26.9236 14.9887 26.8857 15.2587 26.8101C15.3753 26.7774 15.501 26.7357 15.6358 26.6847C15.9102 26.5809 16.2149 26.7752 16.2149 27.0706V27.4714C16.2149 27.6254 16.1284 27.7672 15.988 27.8282C15.7314 27.9397 15.4714 28.0274 15.208 28.0916C14.8668 28.171 14.4712 28.2107 14.0212 28.2107ZM13.5026 24.1825C13.4624 24.3069 13.5594 24.4287 13.6893 24.4287C14.1243 24.4287 14.4768 24.3813 14.7468 24.2869C15.0205 24.1924 15.2193 24.0676 15.343 23.9125C15.4705 23.7577 15.5343 23.5893 15.5343 23.4079C15.5343 23.2264 15.4818 23.0924 15.3768 23.0053C15.2755 22.9145 15.1312 22.8692 14.9437 22.8692C14.7337 22.8692 14.5255 22.9353 14.3193 23.0678C14.113 23.2 13.9312 23.3833 13.7737 23.6178C13.6598 23.7871 13.5694 23.9754 13.5026 24.1825Z"
        fill="white" />
      <path
        d="M20.2985 28.2107C19.8635 28.2107 19.4679 28.1333 19.1116 27.9782C18.7591 27.8194 18.4779 27.57 18.2679 27.2297C18.0616 26.8857 17.9585 26.4359 17.9585 25.8803C17.9585 25.4228 18.0054 24.9843 18.0991 24.5647C18.1929 24.145 18.3316 23.7577 18.5154 23.4022C18.6991 23.047 18.926 22.7387 19.196 22.478C19.466 22.2133 19.7754 22.0073 20.1241 21.8599C20.4729 21.7125 20.8611 21.6387 21.2885 21.6387C21.6635 21.6387 21.9991 21.6746 22.2955 21.7466C22.4683 21.7879 22.6343 21.8387 22.7933 21.8988C22.9891 21.973 23.0733 22.1982 22.9953 22.3938L22.7683 22.9635C22.6847 23.1732 22.4469 23.2716 22.2363 23.1942C22.1637 23.1676 22.0915 23.1424 22.0197 23.1188C21.8247 23.0545 21.6035 23.0224 21.3561 23.0224C21.0897 23.0224 20.8517 23.0998 20.6417 23.2549C20.4355 23.4099 20.2591 23.6178 20.1129 23.8787C19.9704 24.1393 19.8616 24.4323 19.7866 24.7575C19.7116 25.0789 19.6741 25.4059 19.6741 25.7385C19.6741 25.9766 19.7116 26.177 19.7866 26.3395C19.8654 26.502 19.976 26.6248 20.1185 26.7081C20.2647 26.7912 20.4391 26.8329 20.6417 26.8329C20.9267 26.8329 21.1911 26.7893 21.4347 26.7024C21.4881 26.6825 21.5419 26.6617 21.5959 26.6399C21.8729 26.5278 22.1885 26.7238 22.1885 27.0244V27.5198C22.1885 27.6692 22.1073 27.8081 21.9719 27.8692C21.7721 27.9595 21.5611 28.0337 21.3391 28.0916C21.0355 28.171 20.6885 28.2107 20.2985 28.2107Z"
        fill="white" />
      <path
        d="M23.723 28.0974C23.4686 28.0974 23.279 27.8613 23.3316 27.6105L24.4952 22.0774C24.5344 21.8911 24.6976 21.7578 24.8864 21.7578H25.7618C26.0162 21.7578 26.2058 21.9939 26.1532 22.2447L24.9896 27.7776C24.9504 27.9639 24.7872 28.0974 24.5984 28.0974H23.723ZM25.6818 20.9695C25.4418 20.9695 25.2392 20.9167 25.0742 20.8109C24.913 20.705 24.8324 20.5254 24.8324 20.2722C24.8324 20.0529 24.8718 19.8696 24.9506 19.7221C25.033 19.5747 25.1512 19.4632 25.3048 19.3876C25.4586 19.312 25.6424 19.2742 25.8562 19.2742C26.0812 19.2742 26.2762 19.3233 26.4412 19.4216C26.6098 19.5199 26.6942 19.6976 26.6942 19.9546C26.6942 20.257 26.6118 20.5028 26.4468 20.6917C26.2818 20.877 26.0268 20.9695 25.6818 20.9695Z"
        fill="white" />
      <path
        d="M26.5526 30.8871C26.2982 30.8871 26.1084 30.651 26.1612 30.4L27.915 22.0772C27.9544 21.8909 28.1174 21.7579 28.3064 21.7579H28.8342C29.0708 21.7579 29.2558 21.9637 29.2322 22.2012L29.184 22.6871C29.1822 22.7057 29.1966 22.7218 29.2152 22.7218C29.2252 22.7218 29.2346 22.717 29.2406 22.7089C29.3696 22.5321 29.5184 22.3625 29.6868 22.2002C29.8592 22.0339 30.0562 21.8996 30.2774 21.7976C30.4986 21.6918 30.7442 21.6387 31.0142 21.6387C31.318 21.6387 31.6048 21.7143 31.8748 21.8655C32.1448 22.0168 32.3642 22.2625 32.533 22.6026C32.7018 22.9391 32.7862 23.3889 32.7862 23.9522C32.7862 24.3643 32.7412 24.7744 32.6512 25.1827C32.5648 25.5873 32.4374 25.9728 32.2686 26.3395C32.1036 26.7024 31.9012 27.0256 31.6612 27.3091C31.4248 27.5889 31.1568 27.8101 30.8568 27.9726C30.5568 28.1313 30.2286 28.2107 29.8724 28.2107C29.6174 28.2107 29.4018 28.171 29.2256 28.0916C29.0492 28.0085 28.8992 27.897 28.7756 27.7571C28.659 27.6212 28.5512 27.4694 28.4524 27.3014C28.447 27.2922 28.4372 27.2865 28.4264 27.2865C28.4108 27.2865 28.3978 27.2986 28.3966 27.3143C28.3744 27.6099 28.345 27.8821 28.3086 28.1313C28.2712 28.3922 28.2206 28.6682 28.1568 28.9593L27.819 30.5674C27.7798 30.7539 27.6166 30.8871 27.4276 30.8871H26.5526ZM29.5856 26.8329C29.7506 26.8329 29.908 26.7799 30.058 26.674C30.208 26.5643 30.3448 26.417 30.4686 26.2317C30.5924 26.0428 30.6992 25.8293 30.7892 25.591C30.8792 25.349 30.9486 25.094 30.9974 24.8254C31.0462 24.5571 31.0706 24.2887 31.0706 24.0204C31.0706 23.6877 31.0086 23.4381 30.8848 23.2718C30.7648 23.1055 30.5812 23.0224 30.3336 23.0224C30.1536 23.0224 29.9886 23.0696 29.8386 23.1641C29.6924 23.2587 29.563 23.3853 29.4506 23.544C29.338 23.7028 29.2406 23.8823 29.158 24.0827C29.0756 24.2793 29.008 24.4835 28.9556 24.6952C28.903 24.9069 28.8636 25.1109 28.8374 25.3075C28.8148 25.5041 28.8036 25.6799 28.8036 25.8349C28.8036 26.1335 28.873 26.3754 29.0118 26.5607C29.1542 26.7422 29.3456 26.8329 29.5856 26.8329Z"
        fill="white" />
      <path
        d="M36.2962 28.2107C35.8048 28.2107 35.3718 28.1218 34.9968 27.9442C34.6256 27.7627 34.3348 27.4905 34.1248 27.1276C33.9148 26.7647 33.8098 26.3093 33.8098 25.7611C33.8098 25.2319 33.8848 24.7216 34.0348 24.2301C34.1848 23.7349 34.408 23.2926 34.7042 22.9032C35.0042 22.5139 35.3718 22.2059 35.8068 21.9791C36.2456 21.7522 36.7518 21.6387 37.3256 21.6387C38.0306 21.6387 38.5574 21.8012 38.9062 22.1264C39.2586 22.4478 39.4348 22.8617 39.4348 23.3682C39.4348 23.7008 39.3598 24.0032 39.2098 24.2754C39.0636 24.5476 38.8406 24.7821 38.5406 24.9787C38.2406 25.1714 37.8636 25.3208 37.4098 25.4266C36.9562 25.5287 36.4236 25.5797 35.8124 25.5797H35.6442C35.5772 25.5797 35.5216 25.6315 35.5142 25.6988C35.5142 25.7327 35.5142 25.7706 35.5142 25.8121C35.5142 26.1524 35.6118 26.4226 35.8068 26.623C36.0018 26.8234 36.2774 26.9236 36.6336 26.9236C36.9636 26.9236 37.2636 26.8857 37.5336 26.8101C37.6502 26.7774 37.776 26.7357 37.9108 26.6847C38.1852 26.5809 38.4898 26.7752 38.4898 27.0706V27.4714C38.4898 27.6254 38.4034 27.7672 38.263 27.8282C38.0064 27.9397 37.7464 28.0274 37.483 28.0916C37.1418 28.171 36.7462 28.2107 36.2962 28.2107ZM35.7776 24.1825C35.7374 24.3069 35.8344 24.4287 35.9642 24.4287C36.3992 24.4287 36.7518 24.3813 37.0218 24.2869C37.2956 24.1924 37.4942 24.0676 37.618 23.9125C37.7456 23.7577 37.8092 23.5893 37.8092 23.4079C37.8092 23.2264 37.7568 23.0924 37.6518 23.0053C37.5506 22.9145 37.4062 22.8692 37.2186 22.8692C37.0086 22.8692 36.8006 22.9353 36.5942 23.0678C36.388 23.2 36.2062 23.3833 36.0486 23.6178C35.9348 23.7871 35.8444 23.9754 35.7776 24.1825Z"
        fill="white" />
      <path
        d="M41.7411 28.2107C41.3397 28.2107 40.9891 28.1823 40.6891 28.1256C40.4765 28.0849 40.2733 28.0248 40.0801 27.945C39.9405 27.8875 39.8567 27.7464 39.8567 27.5946V27.1319C39.8567 26.822 40.1925 26.624 40.4803 26.7329C40.5605 26.7631 40.6415 26.7909 40.7229 26.8157C41.0229 26.9028 41.3323 26.9462 41.6511 26.9462C41.8273 26.9462 41.9923 26.9216 42.1461 26.8726C42.3035 26.8234 42.4311 26.7478 42.5285 26.6458C42.6261 26.5436 42.6747 26.4151 42.6747 26.2601C42.6747 26.1543 42.6505 26.0597 42.6017 25.9766C42.5529 25.8934 42.4591 25.8026 42.3205 25.7045C42.1855 25.6024 41.9885 25.4795 41.7297 25.3359C41.4711 25.1883 41.2497 25.0371 41.0661 24.8823C40.8861 24.7272 40.7473 24.5514 40.6497 24.3549C40.5561 24.1583 40.5091 23.9276 40.5091 23.6631C40.5091 23.2246 40.6047 22.8561 40.7961 22.5573C40.9873 22.2549 41.2611 22.0262 41.6173 21.8712C41.9773 21.7164 42.4067 21.6387 42.9055 21.6387C43.2691 21.6387 43.6197 21.6803 43.9573 21.7635C44.1847 21.8196 44.4087 21.9004 44.6293 22.0063C44.8143 22.095 44.8821 22.32 44.7965 22.5075L44.5785 22.9851C44.4783 23.2041 44.2113 23.2845 43.9937 23.1843C43.8923 23.1375 43.7883 23.0948 43.6817 23.0563C43.4341 22.9655 43.1867 22.9202 42.9391 22.9202C42.7555 22.9202 42.5905 22.9637 42.4441 23.0506C42.2979 23.1377 42.2247 23.2718 42.2247 23.4532C42.2247 23.5516 42.2511 23.6424 42.3035 23.7254C42.3561 23.8049 42.4441 23.8861 42.5679 23.9694C42.6955 24.0524 42.8661 24.1508 43.0797 24.2641C43.3347 24.3964 43.5597 24.544 43.7547 24.7065C43.9535 24.8651 44.1091 25.0504 44.2217 25.2621C44.3341 25.47 44.3905 25.7176 44.3905 26.0049C44.3905 26.4887 44.2817 26.8952 44.0641 27.224C43.8467 27.5492 43.5391 27.795 43.1417 27.9613C42.7479 28.1276 42.2811 28.2107 41.7411 28.2107Z"
        fill="white" />
      <path
        d="M19.6948 39.7103C19.5188 39.7103 19.3635 39.5942 19.3122 39.4244L18.8886 38.0226C18.8373 37.8528 18.682 37.7369 18.506 37.7369H16.1005C15.9244 37.7369 15.7691 37.8528 15.7178 38.0226L15.2942 39.4244C15.2429 39.5942 15.0876 39.7103 14.9116 39.7103H13.8937C13.618 39.7103 13.4249 39.4355 13.5164 39.1732L16.1377 31.6557C16.194 31.4942 16.3453 31.3861 16.515 31.3861H18.0805C18.2501 31.3861 18.4013 31.494 18.4577 31.6553L21.0891 39.1728C21.1811 39.4351 20.9879 39.7103 20.7119 39.7103H19.6948ZM17.8423 36.2627C18.1121 36.2627 18.3045 35.999 18.2242 35.7393L17.7898 34.3347C17.7523 34.2063 17.7017 34.0418 17.6379 33.8413C17.5779 33.6373 17.516 33.4313 17.4523 33.2234C17.4126 33.0835 17.1977 33.0829 17.157 33.2226C17.1542 33.2321 17.1514 33.242 17.1485 33.2516C17.0848 33.4784 17.0229 33.694 16.9629 33.898C16.9029 34.1022 16.8598 34.2478 16.8335 34.3347L16.4029 35.7403C16.3234 35.9998 16.5158 36.2627 16.7851 36.2627H17.8423Z"
        fill="white" />
      <path
        d="M25.6817 33.2516C26.3905 33.2516 26.9623 33.5294 27.3973 34.0851C27.8361 34.6409 28.0555 35.4554 28.0555 36.529C28.0555 37.2474 27.9523 37.8522 27.7461 38.3435C27.5397 38.8312 27.2547 39.1998 26.8911 39.4494C26.5273 39.6988 26.1091 39.8236 25.6367 39.8236C25.3329 39.8236 25.0723 39.7859 24.8547 39.7103C24.6373 39.6308 24.4517 39.5306 24.2979 39.4097C24.1515 39.2907 24.0237 39.1651 23.9145 39.0324C23.9043 39.0199 23.8893 39.0127 23.8733 39.0127C23.8397 39.0127 23.8147 39.0435 23.8207 39.0768C23.8447 39.2076 23.8631 39.3413 23.8761 39.4776C23.8911 39.6365 23.8985 39.7915 23.8985 39.9427V42.0967C23.8985 42.3195 23.7195 42.5 23.4985 42.5H22.5829C22.3621 42.5 22.1829 42.3195 22.1829 42.0967V33.774C22.1829 33.5512 22.3621 33.3707 22.5829 33.3707H23.2793C23.4565 33.3707 23.6125 33.4881 23.6629 33.6592L23.8067 34.1486C23.8145 34.1748 23.8385 34.1929 23.8657 34.1929C23.8863 34.1929 23.9053 34.1824 23.9169 34.1655C24.0259 34.0058 24.1567 33.8582 24.3091 33.7224C24.4705 33.5786 24.6635 33.4653 24.8885 33.382C25.1173 33.2951 25.3817 33.2516 25.6817 33.2516ZM25.1305 34.6353C24.8305 34.6353 24.5923 34.6976 24.4161 34.8224C24.2397 34.9472 24.1105 35.1343 24.0279 35.3836C23.9491 35.6332 23.9061 35.9488 23.8985 36.3306V36.5177C23.8985 36.926 23.9361 37.2719 24.0111 37.5554C24.0897 37.8389 24.2191 38.0544 24.3991 38.2018C24.5829 38.3494 24.8341 38.423 25.1529 38.423C25.4155 38.423 25.6311 38.3494 25.7997 38.2018C25.9685 38.0544 26.0941 37.8389 26.1767 37.5554C26.2629 37.2681 26.3061 36.9185 26.3061 36.5064C26.3061 35.8865 26.2105 35.4195 26.0191 35.1058C25.8279 34.7921 25.5317 34.6353 25.1305 34.6353Z"
        fill="white" />
      <path
        d="M32.9717 33.2516C33.6805 33.2516 34.2523 33.5294 34.6873 34.0851C35.1261 34.6409 35.3455 35.4554 35.3455 36.529C35.3455 37.2474 35.2423 37.8522 35.0361 38.3435C34.8297 38.8312 34.5447 39.1998 34.1811 39.4494C33.8173 39.6988 33.3991 39.8236 32.9267 39.8236C32.6229 39.8236 32.3623 39.7859 32.1447 39.7103C31.9273 39.6308 31.7417 39.5306 31.5879 39.4097C31.4415 39.2907 31.3137 39.1651 31.2045 39.0324C31.1943 39.0199 31.1793 39.0127 31.1633 39.0127C31.1297 39.0127 31.1047 39.0435 31.1107 39.0768C31.1347 39.2076 31.1531 39.3413 31.1661 39.4776C31.1811 39.6365 31.1885 39.7915 31.1885 39.9427V42.0967C31.1885 42.3195 31.0095 42.5 30.7885 42.5H29.8729C29.6521 42.5 29.4729 42.3195 29.4729 42.0967V33.774C29.4729 33.5512 29.6521 33.3707 29.8729 33.3707H30.5693C30.7465 33.3707 30.9025 33.4881 30.9529 33.6592L31.0967 34.1486C31.1045 34.1748 31.1285 34.1929 31.1557 34.1929C31.1763 34.1929 31.1953 34.1824 31.2069 34.1655C31.3159 34.0058 31.4467 33.8582 31.5991 33.7224C31.7605 33.5786 31.9535 33.4653 32.1785 33.382C32.4073 33.2951 32.6717 33.2516 32.9717 33.2516ZM32.4205 34.6353C32.1205 34.6353 31.8823 34.6976 31.7061 34.8224C31.5297 34.9472 31.4005 35.1343 31.3179 35.3836C31.2391 35.6332 31.1961 35.9488 31.1885 36.3306V36.5177C31.1885 36.926 31.2261 37.2719 31.3011 37.5554C31.3797 37.8389 31.5091 38.0544 31.6891 38.2018C31.8729 38.3494 32.1241 38.423 32.4429 38.423C32.7055 38.423 32.9211 38.3494 33.0897 38.2018C33.2585 38.0544 33.3841 37.8389 33.4667 37.5554C33.5529 37.2681 33.5961 36.9185 33.5961 36.5064C33.5961 35.8865 33.5005 35.4195 33.3091 35.1058C33.1179 34.7921 32.8217 34.6353 32.4205 34.6353Z"
        fill="white" />
    </g>
    <path
      d="M17.903 15.0454C17.903 15.2681 17.7231 15.4486 17.5011 15.4486H16.3584C16.1365 15.4486 15.9565 15.2681 15.9565 15.0454V8.26616C15.9565 8.04346 15.7766 7.86293 15.5547 7.86293H13.8657C13.6438 7.86293 13.4639 7.68241 13.4639 7.4597V6.64065C13.4639 6.41795 13.6438 6.23743 13.8657 6.23743H19.9938C20.2158 6.23743 20.3956 6.41795 20.3956 6.64065V7.4597C20.3956 7.68241 20.2158 7.86293 19.9938 7.86293H18.3048C18.0829 7.86293 17.903 8.04346 17.903 8.26616V15.0454Z"
      fill="white" />
    <path
      d="M23.1709 5.64514C23.3929 5.64514 23.5729 5.82567 23.5729 6.04837V7.64236C23.5729 7.99099 23.5603 8.3228 23.5351 8.63784C23.5175 8.90438 23.5027 9.10476 23.4911 9.23899C23.4879 9.27476 23.5159 9.30567 23.5517 9.30567C23.5727 9.30567 23.5921 9.29476 23.6033 9.27704C23.7501 9.04655 23.9221 8.85867 24.1191 8.71345C24.3283 8.56224 24.5585 8.45093 24.8097 8.37952C25.0609 8.30811 25.3309 8.2724 25.6197 8.2724C26.1263 8.2724 26.5679 8.36272 26.9445 8.54333C27.3213 8.71974 27.6143 8.99905 27.8235 9.38127C28.0329 9.75929 28.1375 10.2507 28.1375 10.8556V15.0453C28.1375 15.268 27.9577 15.4486 27.7357 15.4486H26.6243C26.4023 15.4486 26.2225 15.268 26.2225 15.0453V11.3344C26.2225 10.8304 26.1303 10.4502 25.9463 10.194C25.7621 9.93782 25.4773 9.8097 25.0923 9.8097C24.7071 9.8097 24.4037 9.90002 24.1819 10.0806C23.9601 10.257 23.8031 10.5196 23.7109 10.8682C23.6189 11.2126 23.5729 11.6347 23.5729 12.1346V15.0453C23.5729 15.268 23.3929 15.4486 23.1709 15.4486H22.0597C21.8377 15.4486 21.6577 15.268 21.6577 15.0453V6.04837C21.6577 5.82567 21.8377 5.64514 22.0597 5.64514H23.1709Z"
      fill="white" />
    <path
      d="M33.0035 8.2724C33.6523 8.2724 34.2111 8.39841 34.6799 8.65042C35.1487 8.89825 35.5107 9.25948 35.7661 9.73409C36.0215 10.2087 36.1491 10.7884 36.1491 11.473V12.0022C36.1491 12.2249 35.9691 12.4055 35.7473 12.4055H32.0399C31.8117 12.4055 31.6247 12.5972 31.6701 12.8215C31.7409 13.1704 31.8861 13.4581 32.1055 13.6845C32.4111 13.9911 32.8339 14.1444 33.3739 14.1444C33.8217 14.1444 34.2319 14.0982 34.6045 14.0058C34.7905 13.9597 34.9791 13.902 35.1703 13.8329C35.4469 13.7328 35.7535 13.9287 35.7535 14.2239V14.8263C35.7535 14.9797 35.6673 15.1213 35.5267 15.1817C35.2485 15.3012 34.9599 15.3923 34.6611 15.4549C34.2843 15.5347 33.8259 15.5746 33.2859 15.5746C32.5827 15.5746 31.9591 15.4444 31.4149 15.184C30.8749 14.9235 30.4501 14.5266 30.1403 13.9932C29.8347 13.4597 29.6819 12.7877 29.6819 11.977C29.6819 11.1538 29.8201 10.4692 30.0963 9.92313C30.3767 9.37288 30.7661 8.96125 31.2641 8.68825C31.7623 8.41103 32.3421 8.2724 33.0035 8.2724ZM33.0159 9.6396C32.6435 9.6396 32.3337 9.75929 32.0867 9.99873C31.9177 10.1654 31.7983 10.3983 31.7287 10.6974C31.6757 10.9256 31.8651 11.1265 32.0987 11.1265H33.9455C34.1699 11.1265 34.3563 10.9405 34.3107 10.7202C34.2845 10.5937 34.2465 10.475 34.1963 10.3641C34.1001 10.1415 33.9537 9.96512 33.7569 9.8349C33.5643 9.7047 33.3173 9.6396 33.0159 9.6396Z"
      fill="white" />
    <path
      d="M2.8019 28.3518C2.54652 28.3518 2.35592 28.1159 2.40874 27.8651L4.17902 19.4605C4.2183 19.274 4.38228 19.1406 4.57218 19.1406H6.5005C7.4214 19.1406 8.14764 19.3401 8.67924 19.7392C9.21504 20.134 9.48294 20.7766 9.48294 21.6671C9.48294 22.1542 9.39504 22.5806 9.21922 22.946C9.04342 23.3115 8.80274 23.6181 8.49716 23.8659C8.30246 24.026 8.08942 24.1625 7.85804 24.2752C7.64896 24.377 7.5375 24.6216 7.62756 24.8365L8.8656 27.7923C8.9769 28.0581 8.78242 28.3518 8.49514 28.3518H7.29542C7.12712 28.3518 6.97666 28.2466 6.91842 28.0881L5.81258 25.0808C5.75434 24.9226 5.60388 24.8173 5.4356 24.8173H5.294C5.10422 24.8173 4.9403 24.9506 4.90092 25.1369L4.28884 28.0323C4.24946 28.2185 4.08554 28.3518 3.89574 28.3518H2.8019ZM5.40312 22.749C5.35066 22.9964 5.53878 23.2296 5.79098 23.2296C6.06308 23.2296 6.30586 23.2002 6.51934 23.1413C6.737 23.0784 6.92118 22.9881 7.07186 22.8706C7.22256 22.7486 7.33558 22.5974 7.41092 22.4169C7.49046 22.2321 7.53022 22.0177 7.53022 21.7742C7.53022 21.4298 7.42976 21.1714 7.22884 20.9992C7.02792 20.827 6.71606 20.7409 6.2933 20.7409H6.15404C5.96432 20.7409 5.80044 20.874 5.76098 21.0603L5.40312 22.749Z"
      fill="white" />
    <path
      d="M13.15 28.4778C12.6016 28.4778 12.1182 28.379 11.6996 28.1816C11.2852 27.98 10.9608 27.6776 10.7264 27.2744C10.492 26.8712 10.3748 26.3651 10.3748 25.756C10.3748 25.1679 10.4585 24.601 10.6259 24.0548C10.7933 23.5046 11.0424 23.0133 11.3731 22.5806C11.708 22.148 12.1182 21.8056 12.6037 21.5536C13.0935 21.3016 13.6586 21.1756 14.299 21.1756C15.086 21.1756 15.6741 21.3562 16.0634 21.7175C16.4568 22.0746 16.6536 22.5345 16.6536 23.0972C16.6536 23.4669 16.5699 23.8028 16.4024 24.1052C16.2392 24.4077 15.9901 24.6681 15.6552 24.8867C15.3204 25.1008 14.8997 25.2667 14.3932 25.3843C13.8867 25.4978 13.2923 25.5544 12.61 25.5544H12.4222C12.3474 25.5544 12.2855 25.6121 12.2772 25.6867C12.2772 25.7246 12.2772 25.7665 12.2772 25.8127C12.2772 26.1907 12.3861 26.4911 12.6037 26.7137C12.8214 26.9363 13.1291 27.0476 13.5267 27.0476C13.8951 27.0476 14.23 27.0056 14.5313 26.9216C14.6803 26.88 14.8425 26.8252 15.018 26.757C15.2925 26.6504 15.5987 26.8452 15.5987 27.1405V27.6843C15.5987 27.8383 15.5117 27.98 15.371 28.0417C15.0763 28.1708 14.7775 28.2722 14.4748 28.3456C14.0939 28.4337 13.6523 28.4778 13.15 28.4778ZM12.5711 24.002C12.5263 24.1403 12.6345 24.2754 12.7795 24.2754C13.2651 24.2754 13.6586 24.223 13.96 24.1179C14.2655 24.0129 14.4874 23.8744 14.6255 23.702C14.7678 23.5298 14.839 23.3429 14.839 23.1413C14.839 22.9397 14.7804 22.7907 14.6632 22.6939C14.5502 22.5931 14.389 22.5427 14.1797 22.5427C13.9453 22.5427 13.713 22.6163 13.4828 22.7633C13.2525 22.9103 13.0495 23.1141 12.8737 23.3746C12.7466 23.5627 12.6457 23.772 12.5711 24.002Z"
      fill="white" />
    <path
      d="M20.1569 28.4778C19.6714 28.4778 19.2297 28.3917 18.8321 28.2195C18.4386 28.0431 18.1247 27.7659 17.8903 27.3879C17.66 27.0056 17.5449 26.5058 17.5449 25.8883C17.5449 25.38 17.5973 24.8929 17.7019 24.4266C17.8065 23.9605 17.9614 23.5298 18.1665 23.1351C18.3716 22.7403 18.6249 22.398 18.9263 22.1081C19.2277 21.8141 19.573 21.5851 19.9623 21.4214C20.3515 21.2577 20.7849 21.1756 21.2621 21.1756C21.6807 21.1756 22.0553 21.2155 22.3859 21.2954C22.5929 21.3448 22.7911 21.406 22.9803 21.4794C23.1765 21.5554 23.2609 21.7804 23.1827 21.976L22.8967 22.6901C22.8129 22.8998 22.5739 22.9982 22.3627 22.9198C22.2671 22.8841 22.1723 22.851 22.0783 22.8202C21.8605 22.7486 21.6137 22.7129 21.3373 22.7129C21.0401 22.7129 20.7743 22.799 20.5399 22.9714C20.3097 23.1435 20.1129 23.3746 19.9497 23.6643C19.7907 23.954 19.6693 24.2796 19.5855 24.6409C19.5018 24.998 19.46 25.3613 19.46 25.7308C19.46 25.9956 19.5018 26.2181 19.5855 26.3988C19.6735 26.5792 19.7969 26.7157 19.956 26.8083C20.1193 26.9006 20.3139 26.9468 20.5399 26.9468C20.8581 26.9468 21.1531 26.8986 21.4253 26.802C21.5069 26.7716 21.5893 26.7393 21.6725 26.705C21.9495 26.5903 22.2667 26.7861 22.2667 27.0869V27.7371C22.2667 27.8865 22.1849 28.0252 22.0493 28.0873C21.8189 28.1925 21.5753 28.2786 21.3185 28.3456C20.9795 28.4337 20.5923 28.4778 20.1569 28.4778Z"
      fill="white" />
    <path
      d="M23.9241 28.3518C23.6687 28.3518 23.4781 28.1157 23.5311 27.8649L24.8487 21.6276C24.8881 21.4413 25.0521 21.3081 25.2419 21.3081H26.3103C26.5657 21.3081 26.7563 21.544 26.7033 21.7948L25.3857 28.0323C25.3463 28.2186 25.1823 28.3518 24.9925 28.3518H23.9241ZM26.1657 20.4323C25.8979 20.4323 25.6719 20.3734 25.4877 20.2559C25.3077 20.1382 25.2177 19.9387 25.2177 19.6573C25.2177 19.4137 25.2617 19.2099 25.3495 19.0461C25.4417 18.8823 25.5735 18.7584 25.7451 18.6744C25.9167 18.5904 26.1219 18.5484 26.3605 18.5484C26.6115 18.5484 26.8293 18.603 27.0135 18.7122C27.2017 18.8214 27.2959 19.0188 27.2959 19.3044C27.2959 19.6405 27.2039 19.9135 27.0197 20.1235C26.8355 20.3292 26.5509 20.4323 26.1657 20.4323Z"
      fill="white" />
    <path
      d="M27.0828 31.4516C26.8272 31.4516 26.6366 31.2153 26.6896 30.9645L28.6662 21.6274C28.7058 21.4411 28.8696 21.3081 29.0594 21.3081H29.734C29.9718 21.3081 30.1576 21.5139 30.1338 21.7514L30.0752 22.3403C30.073 22.3611 30.0892 22.379 30.11 22.379C30.1212 22.379 30.1318 22.3736 30.1384 22.3647C30.2824 22.1681 30.4484 21.9798 30.6364 21.7994C30.829 21.6145 31.0488 21.4655 31.2956 21.352C31.5426 21.2345 31.8168 21.1756 32.1182 21.1756C32.4572 21.1756 32.7774 21.2597 33.0788 21.4276C33.3802 21.5958 33.6252 21.8687 33.8134 22.2468C34.0018 22.6206 34.096 23.1204 34.096 23.7462C34.096 24.204 34.0458 24.6597 33.9454 25.1133C33.849 25.5629 33.7068 25.9913 33.5184 26.3988C33.3342 26.802 33.1082 27.1611 32.8402 27.476C32.5766 27.7869 32.2772 28.0327 31.9424 28.2133C31.6076 28.3895 31.2412 28.4778 30.8436 28.4778C30.559 28.4778 30.3182 28.4337 30.1216 28.3456C29.9248 28.253 29.7574 28.1292 29.6192 27.9738C29.4892 27.8228 29.3688 27.654 29.2586 27.4673C29.2524 27.4573 29.2414 27.4508 29.2296 27.4508C29.2122 27.4508 29.1976 27.4645 29.1962 27.4818C29.1714 27.8101 29.1386 28.1127 29.098 28.3895C29.0562 28.6794 28.9998 28.9861 28.9286 29.3095L28.544 31.1318C28.5046 31.3183 28.3406 31.4516 28.1508 31.4516H27.0828ZM30.5234 26.9468C30.7076 26.9468 30.8834 26.8881 31.0508 26.7704C31.2182 26.6486 31.371 26.4849 31.5092 26.279C31.6472 26.0689 31.7666 25.8316 31.867 25.5669C31.9676 25.2982 32.045 25.0147 32.0994 24.7165C32.1538 24.4183 32.181 24.12 32.181 23.8218C32.181 23.4522 32.112 23.175 31.9738 22.9901C31.8398 22.8054 31.6348 22.7129 31.3584 22.7129C31.1576 22.7129 30.9734 22.7655 30.806 22.8706C30.6426 22.9754 30.4982 23.1161 30.3726 23.2925C30.2472 23.4689 30.1382 23.6685 30.0462 23.8911C29.9542 24.1095 29.8788 24.3363 29.8202 24.5716C29.7616 24.8068 29.7176 25.0337 29.6884 25.252C29.6632 25.4704 29.6506 25.6657 29.6506 25.8379C29.6506 26.1698 29.728 26.4385 29.883 26.6443C30.042 26.846 30.2554 26.9468 30.5234 26.9468Z"
      fill="white" />
    <path
      d="M38.014 28.4778C37.4656 28.4778 36.9822 28.379 36.5636 28.1816C36.1492 27.98 35.8248 27.6776 35.5904 27.2744C35.356 26.8712 35.2388 26.3651 35.2388 25.756C35.2388 25.1679 35.3224 24.601 35.49 24.0548C35.6574 23.5046 35.9064 23.0133 36.2372 22.5806C36.572 22.148 36.9822 21.8056 37.4678 21.5536C37.9576 21.3016 38.5226 21.1756 39.163 21.1756C39.95 21.1756 40.5382 21.3562 40.9274 21.7175C41.3208 22.0746 41.5176 22.5345 41.5176 23.0972C41.5176 23.4669 41.4338 23.8028 41.2664 24.1052C41.1032 24.4077 40.8542 24.6681 40.5192 24.8867C40.1844 25.1008 39.7638 25.2667 39.2572 25.3843C38.7508 25.4978 38.1564 25.5544 37.474 25.5544H37.2862C37.2114 25.5544 37.1496 25.6121 37.1412 25.6867C37.1412 25.7246 37.1412 25.7665 37.1412 25.8127C37.1412 26.1907 37.25 26.4911 37.4678 26.7137C37.6854 26.9363 37.993 27.0476 38.3908 27.0476C38.7592 27.0476 39.094 27.0056 39.3954 26.9216C39.5442 26.88 39.7066 26.8252 39.882 26.757C40.1566 26.6504 40.4628 26.8452 40.4628 27.1405V27.6843C40.4628 27.8383 40.3758 27.98 40.235 28.0417C39.9402 28.1708 39.6416 28.2722 39.3388 28.3456C38.958 28.4337 38.5164 28.4778 38.014 28.4778ZM37.4352 24.002C37.3904 24.1403 37.4986 24.2754 37.6436 24.2754C38.1292 24.2754 38.5226 24.223 38.824 24.1179C39.1296 24.0129 39.3514 23.8744 39.4896 23.702C39.6318 23.5298 39.703 23.3429 39.703 23.1413C39.703 22.9397 39.6444 22.7907 39.5272 22.6939C39.4142 22.5931 39.253 22.5427 39.0438 22.5427C38.8094 22.5427 38.577 22.6163 38.3468 22.7633C38.1166 22.9103 37.9136 23.1141 37.7378 23.3746C37.6106 23.5627 37.5098 23.772 37.4352 24.002Z"
      fill="white" />
    <path
      d="M44.0919 28.4778C43.6439 28.4778 43.2525 28.4464 42.9177 28.3833C42.6709 28.3363 42.4359 28.2659 42.2123 28.1722C42.0727 28.1135 41.9885 27.9726 41.9885 27.8208V27.2018C41.9885 26.8919 42.3253 26.6941 42.6125 26.8079C42.7259 26.8528 42.8401 26.8927 42.9553 26.9278C43.2903 27.0246 43.6355 27.0728 43.9913 27.0728C44.1881 27.0728 44.3723 27.0456 44.5439 26.9909C44.7197 26.9363 44.8621 26.8524 44.9709 26.7389C45.0797 26.6254 45.1341 26.4827 45.1341 26.3105C45.1341 26.1929 45.1069 26.0879 45.0525 25.9956C44.9981 25.903 44.8935 25.8022 44.7385 25.6931C44.5879 25.5796 44.3681 25.4431 44.0793 25.2835C43.7905 25.1198 43.5435 24.9516 43.3383 24.7794C43.1375 24.6073 42.9825 24.4119 42.8737 24.1935C42.7691 23.9752 42.7167 23.7189 42.7167 23.425C42.7167 22.9377 42.8235 22.5282 43.0369 22.1964C43.2505 21.8603 43.5561 21.6062 43.9537 21.4339C44.3555 21.2617 44.8349 21.1756 45.3915 21.1756C45.7975 21.1756 46.1889 21.2218 46.5657 21.3143C46.8321 21.3796 47.0941 21.4754 47.3521 21.6016C47.5371 21.6921 47.6053 21.9167 47.5193 22.1042L47.2381 22.7171C47.1375 22.9363 46.8693 23.0169 46.6517 22.9141C46.5245 22.8538 46.3931 22.7994 46.2581 22.7508C45.9817 22.65 45.7055 22.5996 45.4293 22.5996C45.2241 22.5996 45.0399 22.6478 44.8767 22.7443C44.7135 22.8411 44.6319 22.9901 44.6319 23.1917C44.6319 23.301 44.6611 23.4018 44.7197 23.4941C44.7783 23.5825 44.8767 23.6728 45.0149 23.7651C45.1571 23.8575 45.3475 23.9667 45.5861 24.0927C45.8709 24.2397 46.1219 24.4036 46.3397 24.5843C46.5615 24.7605 46.7353 24.9663 46.8607 25.2016C46.9863 25.4327 47.0491 25.7077 47.0491 26.027C47.0491 26.5645 46.9277 27.0161 46.6849 27.3814C46.4421 27.7427 46.0989 28.0157 45.6553 28.2006C45.2157 28.3855 44.6945 28.4778 44.0919 28.4778Z"
      fill="white" />
    <path
      d="M19.45 41.2551C19.2731 41.2551 19.1171 41.1392 19.0656 40.9694L18.5735 39.3482C18.522 39.1785 18.3659 39.0626 18.1891 39.0626H15.4378C15.261 39.0626 15.1049 39.1785 15.0534 39.3482L14.5613 40.9694C14.5098 41.1392 14.3537 41.2551 14.1769 41.2551H12.9447C12.6676 41.2551 12.4737 40.9805 12.5655 40.7182L15.5229 32.2757C15.5795 32.1142 15.7315 32.0061 15.902 32.0061H17.7127C17.8831 32.0061 18.0349 32.114 18.0916 32.2751L21.0605 40.7178C21.1527 40.9801 20.9587 41.2551 20.6815 41.2551H19.45ZM17.4759 37.4244C17.7469 37.4244 17.9402 37.1607 17.8596 36.9013L17.3566 35.2823C17.3147 35.1396 17.2582 34.9567 17.187 34.7341C17.1201 34.5073 17.051 34.2785 16.9798 34.0474C16.9356 33.892 16.6957 33.8916 16.6503 34.0466C16.6471 34.0573 16.644 34.068 16.6408 34.0789C16.5696 34.3309 16.5006 34.5704 16.4336 34.7972C16.3666 35.024 16.3185 35.1857 16.2892 35.2823L15.7906 36.9023C15.7108 37.1615 15.904 37.4244 16.1746 37.4244H17.4759Z"
      fill="white" />
    <path
      d="M26.1659 34.0789C26.9571 34.0789 27.5955 34.3875 28.0811 35.0051C28.5707 35.6226 28.8157 36.5276 28.8157 37.7206C28.8157 38.5186 28.7005 39.1905 28.4703 39.7367C28.2401 40.2785 27.9219 40.6879 27.5159 40.9653C27.1099 41.2424 26.6431 41.3811 26.1157 41.3811C25.7767 41.3811 25.4857 41.3391 25.2429 41.2551C25.0003 41.167 24.7931 41.0555 24.6213 40.9212C24.4579 40.7891 24.3153 40.6494 24.1935 40.502C24.1821 40.4881 24.1653 40.4801 24.1473 40.4801C24.1099 40.4801 24.0819 40.5143 24.0887 40.5512C24.1155 40.6966 24.1361 40.8452 24.1505 40.9968C24.1673 41.1732 24.1755 41.3454 24.1755 41.5133V43.9516C24.1755 44.1744 23.9957 44.3549 23.7737 44.3549H22.6623C22.4405 44.3549 22.2605 44.1744 22.2605 43.9516V34.6145C22.2605 34.3918 22.4405 34.2113 22.6623 34.2113H23.5177C23.6957 34.2113 23.8523 34.3287 23.9029 34.4998L24.0731 35.0754C24.0817 35.1047 24.1085 35.1248 24.1389 35.1248C24.1619 35.1248 24.1831 35.1133 24.1961 35.0944C24.3177 34.917 24.4637 34.7528 24.6339 34.6018C24.8139 34.4422 25.0295 34.3162 25.2807 34.2238C25.5361 34.1272 25.8311 34.0789 26.1659 34.0789ZM25.5507 35.6162C25.2157 35.6162 24.9499 35.6855 24.7533 35.8242C24.5565 35.9627 24.4121 36.1706 24.3201 36.4478C24.2321 36.725 24.1839 37.0758 24.1755 37.5V37.7079C24.1755 38.1615 24.2175 38.546 24.3011 38.8609C24.3891 39.1758 24.5335 39.4153 24.7345 39.5791C24.9395 39.743 25.2199 39.8248 25.5757 39.8248C25.8687 39.8248 26.1095 39.743 26.2979 39.5791C26.4861 39.4153 26.6265 39.1758 26.7185 38.8609C26.8147 38.5418 26.8629 38.1532 26.8629 37.6954C26.8629 37.0065 26.7561 36.4877 26.5427 36.1391C26.3293 35.7905 25.9985 35.6162 25.5507 35.6162Z"
      fill="white" />
    <path
      d="M34.3031 34.0789C35.0943 34.0789 35.7327 34.3875 36.2181 35.0051C36.7079 35.6226 36.9529 36.5276 36.9529 37.7206C36.9529 38.5186 36.8377 39.1905 36.6075 39.7367C36.3773 40.2785 36.0591 40.6879 35.6531 40.9653C35.2471 41.2424 34.7803 41.3811 34.2529 41.3811C33.9139 41.3811 33.6229 41.3391 33.3801 41.2551C33.1373 41.167 32.9301 41.0555 32.7585 40.9212C32.5951 40.7891 32.4523 40.6494 32.3307 40.502C32.3193 40.4881 32.3023 40.4801 32.2845 40.4801C32.2471 40.4801 32.2191 40.5143 32.2259 40.5512C32.2527 40.6966 32.2733 40.8452 32.2877 40.9968C32.3043 41.1732 32.3127 41.3454 32.3127 41.5133V43.9516C32.3127 44.1744 32.1329 44.3549 31.9109 44.3549H30.7995C30.5777 44.3549 30.3977 44.1744 30.3977 43.9516V34.6145C30.3977 34.3918 30.5777 34.2113 30.7995 34.2113H31.6549C31.8329 34.2113 31.9895 34.3287 32.0401 34.4998L32.2103 35.0754C32.2189 35.1047 32.2457 35.1248 32.2761 35.1248C32.2989 35.1248 32.3203 35.1133 32.3333 35.0944C32.4549 34.917 32.6009 34.7528 32.7711 34.6018C32.9511 34.4422 33.1667 34.3162 33.4179 34.2238C33.6731 34.1272 33.9683 34.0789 34.3031 34.0789ZM33.6879 35.6162C33.3529 35.6162 33.0871 35.6855 32.8905 35.8242C32.6937 35.9627 32.5493 36.1706 32.4571 36.4478C32.3693 36.725 32.3211 37.0758 32.3127 37.5V37.7079C32.3127 38.1615 32.3547 38.546 32.4383 38.8609C32.5263 39.1758 32.6707 39.4153 32.8715 39.5791C33.0767 39.743 33.3571 39.8248 33.7129 39.8248C34.0059 39.8248 34.2467 39.743 34.4349 39.5791C34.6233 39.4153 34.7635 39.1758 34.8557 38.8609C34.9519 38.5418 35.0001 38.1532 35.0001 37.6954C35.0001 37.0065 34.8933 36.4877 34.6799 36.1391C34.4663 35.7905 34.1357 35.6162 33.6879 35.6162Z"
      fill="white" />
  </g>
  <defs>
    <filter id="filter0_f_97_42" x="-0.800049" y="2.62903" width="51.4644" height="44.5806"
      filterUnits="userSpaceOnUse" color-interpolation-filters="sRGB">
      <feFlood flood-opacity="0" result="BackgroundImageFix" />
      <feBlend mode="normal" in="SourceGraphic" in2="BackgroundImageFix" result="shape" />
      <feGaussianBlur stdDeviation="0.5" result="effect1_foregroundBlur_97_42" />
    </filter>
    <clipPath id="clip0_97_42">
      <rect width="50" height="50" fill="white" />
    </clipPath>
  </defs>
</svg>